<svg xmlns="http://www.w3.org/2000/svg" viewBox="0 0 150 150"><path fill="#ff2d00" d="M40.43 108.207v-6.371h4.011v1.027H41.7v1.739h2.442v1.023H41.7v2.582Zm10.726 0v-1.055h1.442v-4.156l-1.446.32v-1.058l1.88-.422h.835v5.316h1.442v1.055Zm19.668 0v-5.344h-1.77v-1.027h4.805v1.027h-1.765v5.344Zm9.317 0v-6.371h4.257v1.027H81.41v1.567h2.567v1.023H81.41v1.727h3.024v1.027Zm15.054 0-.496-1.363h-2.636l-.485 1.363h-1.32l2.48-6.371h1.352l2.48 6.371Zm-1.472-4.098q-.206-.597-.336-1.125c-.082.352-.196.727-.332 1.125l-.621 1.715h1.898Zm14.586 4.098v-3.492q0-.521.062-1.293-.273.679-.605 1.223l-1.258 2.043h-.797l-1.254-2.043q-.299-.48-.598-1.207c.04.515.059.937.059 1.277v3.492h-1.203v-6.371h1.347l1.602 2.648q.292.497.461.93a6.3 6.3 0 0 1 .46-.934l1.599-2.648h1.328v6.375h-1.207Zm-48.766-3.496c-.836 0-1.461-.578-1.461-1.414 0-.832.625-1.418 1.461-1.418.84 0 1.46.582 1.46 1.418 0 .84-.616 1.414-1.46 1.414m1.102-1.414c0-.625-.43-1.098-1.102-1.098-.668 0-1.098.473-1.098 1.098s.434 1.098 1.098 1.098 1.102-.47 1.102-1.098m-.758.719-.301-.461c-.059-.082-.09-.094-.18-.094h-.097v.555h-.356v-1.477h.602c.351 0 .597.14.597.441 0 .223-.113.344-.304.407.05.023.078.066.101.09l.352.539Zm-.383-.832c.184 0 .281-.059.281-.204 0-.105-.086-.164-.27-.164h-.206v.371h.195Zm50.016-22.395v-2.352h-2.805v-3.066h-2.711v11.184c0 1.027.258 1.808.766 2.324.507.52 1.3.781 2.355.781h2.395v-2.35h-1.754q-.571-.002-.813-.25c-.144-.153-.238-.536-.238-.977v-5.289h2.805Zm-37.575-2.352-2.804 8.176-2.805-8.175h-2.848l4.047 11.124h3.211l4.047-11.124Zm15.614-4.035h2.714v15.16H87.56Zm12.023 9.61c0 .703-.105 1.316-.316 1.82-.207.504-.508.887-.887 1.145q-.576.386-1.39.386c-.774 0-1.36-.258-1.739-.758-.383-.511-.578-1.28-.578-2.293v-5.874H91.96v6.175c0 .961.121 1.778.355 2.422.239.649.563 1.176.97 1.57.401.391.874.672 1.405.84a5.6 5.6 0 0 0 1.676.246c.848 0 1.551-.152 2.086-.457a4.7 4.7 0 0 0 1.219-.964l.242 1.296h2.379V78.437h-2.711Zm-16.168-4.989c-.855-.472-1.871-.714-3.016-.714-1.144 0-2.144.242-3.003.714a5.07 5.07 0 0 0-2.016 2c-.473.848-.715 1.852-.715 2.989 0 1.133.242 2.117.715 2.968a5.1 5.1 0 0 0 2.016 1.997c.859.476 1.87.714 3.003.714s2.16-.238 3.016-.714a5.1 5.1 0 0 0 2.004-1.997c.473-.851.715-1.847.715-2.968s-.242-2.14-.715-2.989a5.05 5.05 0 0 0-2.004-1.996m-1.434 7.95c-.437.28-.968.425-1.582.425-.613 0-1.128-.144-1.574-.425a2.9 2.9 0 0 1-1.035-1.2q-.368-.768-.367-1.765c0-.66.121-1.274.367-1.774a2.93 2.93 0 0 1 1.04-1.199c.44-.293.972-.441 1.57-.441.601 0 1.144.148 1.581.441s.786.695 1.028 1.2c.246.503.367 1.1.367 1.773 0 .675-.121 1.254-.367 1.765-.242.508-.59.914-1.028 1.2m-41.53-8.832h2.82v11.421h-2.82Zm11.655.652a4.397 4.397 0 0 0-4.386-4.395h-7.266v2.442h6.918c1.098 0 2.004.86 2.024 1.922a1.94 1.94 0 0 1-.56 1.41 1.94 1.94 0 0 1-1.394.586h-2.699a.173.173 0 0 0-.172.172v2.168q.001.06.032.101l4.574 6.36h3.347l-4.582-6.376c2.309-.117 4.164-2.062 4.164-4.39m8.668.164c-.812-.434-1.777-.652-2.867-.652-1.086 0-2.062.242-2.898.718a5 5 0 0 0-1.95 1.996c-.456.848-.69 1.86-.69 3.012 0 1.149.237 2.117.702 2.965a4.96 4.96 0 0 0 2.004 1.988c.864.465 1.895.703 3.07.703.93 0 1.77-.171 2.489-.52.719-.347 1.304-.816 1.746-1.401.414-.555.695-1.18.832-1.864l.016-.074H60.53l-.011.047a2.12 2.12 0 0 1-.86 1.195c-.45.305-1.004.461-1.644.461a3.04 3.04 0 0 1-1.461-.347 2.4 2.4 0 0 1-.98-.973c-.231-.418-.36-.922-.388-1.492v-.09h8.145l.008-.051c.031-.156.047-.316.058-.48q.007-.237.008-.473c-.011-1.082-.254-2.027-.715-2.82a4.8 4.8 0 0 0-1.918-1.848m-.992 2.094c.465.39.754.945.86 1.652h-5.364a2.55 2.55 0 0 1 .453-1.18c.25-.34.57-.609.95-.793a2.8 2.8 0 0 1 1.246-.285c.754 0 1.379.203 1.855.61m38.836-39.024a12.07 12.07 0 0 0-7.879 2.914 12.03 12.03 0 0 0-7.875-2.914 12.07 12.07 0 0 0-7.879 2.914 12.03 12.03 0 0 0-7.875-2.914 12.07 12.07 0 0 0-7.879 2.914 12.03 12.03 0 0 0-7.875-2.914c-6.69 0-12.117 5.434-12.117 12.14 0 6.704 5.426 12.141 12.117 12.141 3.008 0 5.758-1.097 7.875-2.914a12.07 12.07 0 0 0 7.88 2.914c3.007 0 5.757-1.097 7.874-2.914a12.06 12.06 0 0 0 7.88 2.914c3.007 0 5.757-1.097 7.874-2.914a12.06 12.06 0 0 0 7.88 2.914c6.69 0 12.112-5.437 12.112-12.14 0-6.707-5.421-12.14-12.113-12.14M90.738 59.84a9.7 9.7 0 0 1-1.816-5.664 9.7 9.7 0 0 1 1.816-5.664 9.5 9.5 0 0 1 1.059 1.883 9.7 9.7 0 0 1 .762 3.78 9.7 9.7 0 0 1-.762 3.782 9.8 9.8 0 0 1-1.059 1.883m-15.75 0a9.8 9.8 0 0 1-1.058-1.883 9.7 9.7 0 0 1-.758-3.781c0-1.313.254-2.586.758-3.781a9.7 9.7 0 0 1 1.058-1.883 9.7 9.7 0 0 1 1.816 5.664 9.7 9.7 0 0 1-1.816 5.664m-15.754 0a9.6 9.6 0 0 1-1.054-1.883 9.6 9.6 0 0 1-.762-3.781 9.6 9.6 0 0 1 .762-3.781 9.4 9.4 0 0 1 1.054-1.883 9.7 9.7 0 0 1 1.059 1.883 9.7 9.7 0 0 1 .758 3.78 9.7 9.7 0 0 1-.758 3.782 9.8 9.8 0 0 1-1.059 1.883m-7.875 4.05a9.7 9.7 0 0 1-3.773-.761 9.72 9.72 0 0 1-5.16-5.172 9.7 9.7 0 0 1-.762-3.781 9.7 9.7 0 0 1 2.84-6.867 9.7 9.7 0 0 1 3.082-2.086 9.65 9.65 0 0 1 3.773-.762c1.309 0 2.578.258 3.774.762a9.7 9.7 0 0 1 2.426 1.484 12.08 12.08 0 0 0-2.563 7.469c0 2.816.957 5.41 2.563 7.469a9.7 9.7 0 0 1-2.426 1.484 9.7 9.7 0 0 1-3.774.762m15.75 0a9.63 9.63 0 0 1-6.199-2.246 12.1 12.1 0 0 0 2.567-7.47c0-2.816-.957-5.41-2.567-7.468a9.63 9.63 0 0 1 6.2-2.246 9.64 9.64 0 0 1 6.199 2.246 12.1 12.1 0 0 0-2.563 7.469c0 2.816.957 5.41 2.563 7.469a9.64 9.64 0 0 1-6.2 2.246m15.754 0a9.7 9.7 0 0 1-3.773-.762 9.7 9.7 0 0 1-2.426-1.484 12.1 12.1 0 0 0 2.566-7.47c0-2.816-.96-5.41-2.566-7.468a9.7 9.7 0 0 1 2.426-1.484 9.7 9.7 0 0 1 3.773-.762c1.309 0 2.578.258 3.774.762a9.7 9.7 0 0 1 2.425 1.484 12.1 12.1 0 0 0-2.562 7.469c0 2.816.957 5.41 2.563 7.469a9.6 9.6 0 0 1-2.426 1.484 9.7 9.7 0 0 1-3.774.762m22.606-2.848a9.6 9.6 0 0 1-3.082 2.082 9.6 9.6 0 0 1-3.77.762 9.6 9.6 0 0 1-3.773-.762 9.6 9.6 0 0 1-2.426-1.48 12.1 12.1 0 0 0 2.562-7.47c0-2.816-.957-5.41-2.562-7.468a9.64 9.64 0 0 1 6.2-2.246 9.63 9.63 0 0 1 6.85 2.844 9.7 9.7 0 0 1 2.079 3.09 9.6 9.6 0 0 1 .762 3.78 9.6 9.6 0 0 1-.762 3.782 9.6 9.6 0 0 1-2.078 3.086"/></svg>