<?xml version="1.0" encoding="UTF-8"?>
<svg xmlns="http://www.w3.org/2000/svg" viewBox="0 0 800 600" width="800" height="600">
  <path id="br-1940" d="M233.20 430.68 L269.86 560.60 L273.74 574.28 L277.63 582.18 L286.41 594.14 L290.93 597.52 L297.42 599.94 L303.85 600.00 L310.92 598.66 L314.61 596.88 L326.07 587.21 L337.21 575.88 L341.60 572.88 L347.33 571.04 L353.12 570.72 L361.52 573.20 L379.34 583.20 L393.48 588.54 L403.98 591.02 L413.59 592.17 L422.37 592.62 L435.30 591.22 L445.16 589.24 L457.32 585.23 L468.71 579.19 L479.98 571.10 L489.08 562.32 L496.28 552.96 L501.62 544.18 L506.08 534.31 L523.52 481.54 L530.90 455.06 L543.51 410.12 L558.91 352.71 L585.96 258.63 L595.70 224.70 L602.58 200.89 L605.76 189.82 L606.97 182.81 L606.21 176.26 L604.42 171.80 L600.54 166.52 L593.54 162.06 L585.39 158.94 L573.62 156.72 L538.42 150.35 L524.67 148.95 L516.14 149.52 L505.70 150.86 L495.83 153.53 L487.11 158.24 L478.84 162.70 L470.56 168.94 L462.60 177.02 L451.72 189.69 L415.95 233.93 L394.94 261.17 L377.05 284.47 L357.45 308.02 L347.14 321.13 L339.18 331.00 L333.64 336.60 L327.47 340.10 L318.68 342.97 L309.01 344.11 L294.49 343.79 L284.82 342.33 L277.12 340.10 L270.24 337.24 L258.47 331.38 L252.61 326.61 L248.73 321.90 L244.97 315.09 L242.11 305.86 L238.54 292.23 L235.61 279.76 L231.67 256.84 L230.90 247.36 L231.09 237.75 L233.58 230.43 L237.59 226.73 L240.39 225.40 L243.89 224.32 L248.66 223.81 L253.69 224.95 L258.98 226.86 L273.23 236.79 L278.96 239.91 L283.42 241.63 L288.19 242.52 L292.58 242.84 L297.42 242.27 L304.04 240.04 L311.87 234.12 L316.26 228.13 L318.62 221.58 L319.00 215.98 L318.05 209.48 L315.37 204.39 L309.26 196.18 L303.72 191.09 L284.18 173.58 L274.12 163.02 L267.19 153.60 L262.16 140.99 L258.27 125.33 L256.49 115.85 L255.54 107.32 L256.17 100.32 L259.17 95.54 L261.65 92.68 L265.66 91.47 L268.97 90.71 L273.23 91.34 L278.20 93.19 L302.07 118.08 L322.69 138.96 L326.26 141.63 L333.96 146.53 L341.02 149.40 L346.88 150.99 L354.07 152.07 L360.76 152.77 L368.46 152.83 L380.55 151.24 L389.78 148.50 L399.59 143.35 L409.52 135.96 L415.05 129.28 L420.97 121.77 L436.82 98.92 L454.33 72.06 L474.12 42.71 L475.40 39.27 L475.72 35.20 L474.51 31.19 L472.22 26.86 L467.82 23.11 L457.45 18.14 L442.36 13.11 L411.74 2.55 L405.76 1.08 L398.12 0.00 L382.72 1.53 L369.22 3.63 L339.69 9.42 L329.89 12.48 L310.41 19.92 L300.80 23.81 L277.88 35.14 L268.78 40.80 L261.01 47.17 L253.12 53.85 L246.69 60.79 L240.96 68.94 L235.74 79.31 L231.54 90.39 L224.92 112.99 L217.73 141.44 L212.95 168.24 L204.74 196.82 L199.46 218.33 L194.88 233.23 L193.35 244.05 L193.03 258.75 L193.92 276.19 L196.02 289.24 L199.59 304.46 L205.76 326.35 L223.77 395.74 L233.20 430.68 Z" stroke="#ff1801" fill="none" stroke-width="2"/>
</svg>
