<svg xmlns="http://www.w3.org/2000/svg" xmlns:xlink="http://www.w3.org/1999/xlink" width="200" zoomAndPan="magnify" viewBox="0 0 150 149.999998" height="200" preserveAspectRatio="xMidYMid meet" version="1.0"><defs><clipPath id="cf4d5dfcbf"><path d="M 27 27 L 135 27 L 135 135 L 27 135 Z M 27 27 " clip-rule="nonzero"/></clipPath></defs><path fill="#efe8d4" d="M 81 109.5625 C 65.261719 109.5625 52.460938 96.757812 52.460938 81.019531 C 52.460938 65.28125 65.261719 52.476562 81 52.476562 C 96.796875 52.476562 109.542969 65.273438 109.542969 81.019531 C 109.542969 96.765625 96.792969 109.5625 81 109.5625 Z M 81 53.796875 C 65.988281 53.796875 53.777344 66.007812 53.777344 81.019531 C 53.777344 96.03125 65.988281 108.242188 81 108.242188 C 96.011719 108.242188 108.222656 96.03125 108.222656 81.019531 C 108.222656 66.007812 96.011719 53.796875 81 53.796875 Z M 81 53.796875 " fill-opacity="1" fill-rule="nonzero"/><path fill="#efe8d4" d="M 81 67.132812 C 78.632812 67.132812 76.703125 65.203125 76.703125 62.835938 C 76.703125 60.46875 78.632812 58.539062 81 58.539062 C 83.371094 58.539062 85.296875 60.464844 85.296875 62.835938 C 85.296875 65.203125 83.371094 67.132812 81 67.132812 Z M 81 59.859375 C 79.359375 59.859375 78.023438 61.195312 78.023438 62.835938 C 78.023438 64.476562 79.359375 65.8125 81 65.8125 C 82.640625 65.8125 83.976562 64.476562 83.976562 62.835938 C 83.976562 61.195312 82.640625 59.859375 81 59.859375 Z M 81 59.859375 " fill-opacity="1" fill-rule="nonzero"/><path fill="#efe8d4" d="M 65.300781 94.492188 C 62.929688 94.492188 61.003906 92.566406 61.003906 90.195312 C 61.003906 87.828125 62.929688 85.902344 65.300781 85.902344 C 67.667969 85.902344 69.59375 87.828125 69.59375 90.195312 C 69.597656 92.566406 67.667969 94.492188 65.300781 94.492188 Z M 65.300781 87.21875 C 63.65625 87.21875 62.320312 88.554688 62.320312 90.195312 C 62.320312 91.835938 63.65625 93.171875 65.300781 93.171875 C 66.941406 93.171875 68.277344 91.835938 68.277344 90.195312 C 68.277344 88.554688 66.941406 87.21875 65.300781 87.21875 Z M 65.300781 87.21875 " fill-opacity="1" fill-rule="nonzero"/><path fill="#efe8d4" d="M 65.300781 76.140625 C 62.929688 76.140625 61.003906 74.210938 61.003906 71.84375 C 61.003906 69.472656 62.929688 67.546875 65.300781 67.546875 C 67.667969 67.546875 69.59375 69.472656 69.59375 71.84375 C 69.597656 74.210938 67.667969 76.140625 65.300781 76.140625 Z M 65.300781 68.867188 C 63.65625 68.867188 62.320312 70.203125 62.320312 71.84375 C 62.320312 73.484375 63.65625 74.820312 65.300781 74.820312 C 66.941406 74.820312 68.277344 73.484375 68.277344 71.84375 C 68.277344 70.203125 66.941406 68.867188 65.300781 68.867188 Z M 65.300781 68.867188 " fill-opacity="1" fill-rule="nonzero"/><path fill="#efe8d4" d="M 81 103.5 C 78.632812 103.5 76.703125 101.574219 76.703125 99.203125 C 76.703125 96.835938 78.632812 94.90625 81 94.90625 C 83.371094 94.90625 85.296875 96.835938 85.296875 99.203125 C 85.296875 101.574219 83.371094 103.5 81 103.5 Z M 81 96.226562 C 79.359375 96.226562 78.023438 97.5625 78.023438 99.203125 C 78.023438 100.84375 79.359375 102.179688 81 102.179688 C 82.640625 102.179688 83.976562 100.84375 83.976562 99.203125 C 83.976562 97.5625 82.640625 96.226562 81 96.226562 Z M 81 96.226562 " fill-opacity="1" fill-rule="nonzero"/><path fill="#efe8d4" d="M 81 90.164062 C 75.957031 90.164062 71.855469 86.0625 71.855469 81.019531 C 71.855469 75.976562 75.957031 71.875 81 71.875 C 86.042969 71.875 90.144531 75.976562 90.144531 81.019531 C 90.144531 86.0625 86.042969 90.164062 81 90.164062 Z M 81 73.195312 C 76.683594 73.195312 73.175781 76.703125 73.175781 81.019531 C 73.175781 85.335938 76.683594 88.847656 81 88.847656 C 85.316406 88.847656 88.828125 85.335938 88.828125 81.019531 C 88.828125 76.703125 85.316406 73.195312 81 73.195312 Z M 81 73.195312 " fill-opacity="1" fill-rule="nonzero"/><path fill="#efe8d4" d="M 96.703125 94.492188 C 94.332031 94.492188 92.40625 92.566406 92.40625 90.195312 C 92.40625 87.828125 94.332031 85.902344 96.703125 85.902344 C 99.070312 85.902344 101 87.828125 101 90.195312 C 100.996094 92.566406 99.070312 94.492188 96.703125 94.492188 Z M 96.703125 87.21875 C 95.058594 87.21875 93.726562 88.554688 93.726562 90.195312 C 93.726562 91.835938 95.058594 93.171875 96.703125 93.171875 C 98.34375 93.171875 99.679688 91.835938 99.679688 90.195312 C 99.679688 88.554688 98.34375 87.21875 96.703125 87.21875 Z M 96.703125 87.21875 " fill-opacity="1" fill-rule="nonzero"/><path fill="#efe8d4" d="M 96.703125 76.140625 C 94.332031 76.140625 92.40625 74.210938 92.40625 71.84375 C 92.40625 69.472656 94.332031 67.546875 96.703125 67.546875 C 99.070312 67.546875 101 69.472656 101 71.84375 C 100.996094 74.210938 99.070312 76.140625 96.703125 76.140625 Z M 96.703125 68.867188 C 95.058594 68.867188 93.726562 70.203125 93.726562 71.84375 C 93.726562 73.484375 95.058594 74.820312 96.703125 74.820312 C 98.34375 74.820312 99.679688 73.484375 99.679688 71.84375 C 99.679688 70.203125 98.34375 68.867188 96.703125 68.867188 Z M 96.703125 68.867188 " fill-opacity="1" fill-rule="nonzero"/><g clip-path="url(#cf4d5dfcbf)"><path fill="#efe8d4" d="M 81 135.019531 C 52.609375 135.019531 29.167969 113.042969 27.144531 84.945312 C 27.132812 84.765625 27.195312 84.585938 27.320312 84.449219 C 27.445312 84.316406 27.621094 84.238281 27.804688 84.238281 L 43.125 84.238281 L 43.125 81.019531 C 43.125 60.125 60.117188 43.125 81 43.125 L 84.222656 43.125 L 84.222656 27.824219 C 84.222656 27.640625 84.296875 27.464844 84.429688 27.339844 C 84.566406 27.214844 84.746094 27.152344 84.925781 27.164062 C 112.953125 29.160156 135 52.554688 135 81.019531 C 135 109.804688 111.863281 135.019531 81 135.019531 Z M 28.519531 85.558594 C 30.828125 112.613281 53.746094 133.699219 81 133.699219 C 110.050781 133.699219 133.683594 110.066406 133.683594 81.019531 C 133.683594 53.765625 112.59375 30.847656 85.539062 28.535156 L 85.539062 43.785156 C 85.539062 44.148438 85.246094 44.445312 84.878906 44.445312 L 81 44.445312 C 60.84375 44.445312 44.445312 60.851562 44.445312 81.019531 L 44.445312 84.898438 C 44.445312 85.261719 44.148438 85.558594 43.785156 85.558594 Z M 28.519531 85.558594 " fill-opacity="1" fill-rule="nonzero"/></g><path fill="#efe8d4" d="M 81 113.199219 C 63.175781 113.199219 48.820312 98.769531 48.820312 81.019531 C 48.820312 63.195312 63.25 48.839844 81 48.839844 C 98.867188 48.839844 113.179688 63.328125 113.179688 81.019531 C 113.179688 98.886719 98.691406 113.199219 81 113.199219 Z M 81 50.160156 C 63.984375 50.160156 50.140625 64.003906 50.140625 81.019531 C 50.140625 98.035156 63.984375 111.878906 81 111.878906 C 98.015625 111.878906 111.859375 98.035156 111.859375 81.019531 C 111.859375 64.003906 98.015625 50.160156 81 50.160156 Z M 81 50.160156 " fill-opacity="1" fill-rule="nonzero"/><path fill="#efe8d4" d="M 39.90625 81.679688 L 15.660156 81.679688 C 15.296875 81.679688 15 81.382812 15 81.019531 C 15 63.386719 21.863281 46.808594 34.328125 34.339844 C 46.796875 21.867188 63.371094 15 81 15 C 81.363281 15 81.660156 15.296875 81.660156 15.660156 L 81.660156 39.90625 C 81.660156 40.269531 81.363281 40.5625 81 40.5625 C 58.703125 40.5625 40.5625 58.710938 40.5625 81.019531 C 40.5625 81.382812 40.269531 81.679688 39.90625 81.679688 Z M 16.324219 80.359375 L 39.25 80.359375 C 39.601562 57.847656 57.839844 39.601562 80.339844 39.25 L 80.339844 16.324219 C 63.3125 16.492188 47.324219 23.207031 35.261719 35.269531 C 23.203125 47.335938 16.492188 63.324219 16.324219 80.359375 Z M 16.324219 80.359375 " fill-opacity="1" fill-rule="nonzero"/></svg>